<svg id="Layer_1" data-name="Layer 1" xmlns="http://www.w3.org/2000/svg" viewBox="0 0 127.29 80"><defs><style>.cls-1{fill:none;stroke:#000;stroke-miterlimit:10;stroke-width:3px;}.cls-2{fill:#ead11b;}.cls-3{fill:#cead21;}.cls-4{fill:#e5decc;}.cls-5{fill:#fff;}</style></defs><title>design</title><path class="cls-1" d="M98.25,52.17v0"/><path class="cls-1" d="M35.6,14.46,29.12,48.85a6.71,6.71,0,0,0,0,9.49L40.83,70.05l11.7-11.71a6.69,6.69,0,0,0,0-9.49L46.05,14.46A5.43,5.43,0,0,0,40.88,10h-.1A5.45,5.45,0,0,0,35.6,14.46Z"/><rect x="26.64" y="51.63" width="28.75" height="3.94" rx="1.97"/><rect x="32.73" y="61.5" width="15.96" height="2.19"/><rect x="40.3" y="11.25" width="0.95" height="17.69"/><rect x="42.44" y="20.58" width="1" height="18.67" transform="translate(-3.46 54.12) rotate(-62.42)"/><rect x="41.38" y="25.89" width="1" height="19.67" transform="translate(-9.17 56.3) rotate(-62.42)"/><rect x="41.08" y="31.2" width="1.22" height="22.72" transform="translate(-15.34 59.8) rotate(-62.42)"/><rect x="38.44" y="39.83" width="1" height="18.67" transform="translate(-22.67 60.91) rotate(-62.42)"/><path class="cls-1" d="M89.58,55.56l7-.46a6.69,6.69,0,0,0,0-9.49l-7-7a6.72,6.72,0,0,0-9.5,0l-7,7a6.71,6.71,0,0,0,0,9.49l7,.46h9.69"/><circle cx="84.98" cy="31.58" r="15.67"/><path class="cls-2" d="M96.45,33.69A11.67,11.67,0,1,1,82.87,20.11a11.16,11.16,0,0,0-.19,2.1A11.68,11.68,0,0,0,94.35,33.88,11.16,11.16,0,0,0,96.45,33.69Z"/><path class="cls-3" d="M96.64,31.59a11.16,11.16,0,0,1-.19,2.1,11.16,11.16,0,0,1-2.1.19A11.68,11.68,0,0,1,82.68,22.21a11.16,11.16,0,0,1,.19-2.1,11.16,11.16,0,0,1,2.1-.19A11.66,11.66,0,0,1,96.64,31.59Z"/><path class="cls-4" d="M92.08,25.8a2.67,2.67,0,0,1-1.68,2.48,2.73,2.73,0,0,0,.24-1.11A2.69,2.69,0,0,0,88,24.48a2.6,2.6,0,0,0-1,.2,2.69,2.69,0,0,1,5.14,1.12Z"/><path class="cls-5" d="M90.64,27.17a2.73,2.73,0,0,1-.24,1.11,2.6,2.6,0,0,1-1,.2A2.69,2.69,0,0,1,86.7,25.8a2.78,2.78,0,0,1,.24-1.12,2.6,2.6,0,0,1,1-.2A2.69,2.69,0,0,1,90.64,27.17Z"/><ellipse cx="84.98" cy="46.42" rx="11.33" ry="5.5"/></svg>