<svg id="Layer_1" data-name="Layer 1" xmlns="http://www.w3.org/2000/svg" viewBox="0 0 127.29 80"><defs><style>.cls-1{fill:none;stroke:#000;stroke-miterlimit:10;stroke-width:3px;}</style></defs><title>make story</title><rect class="cls-1" x="39.23" y="18.72" width="35.24" height="45.7" rx="6.71"/><rect class="cls-1" x="76" y="18.72" width="35.24" height="45.7" rx="6.71"/><rect x="43.49" y="27.12" width="19.76" height="1.41" rx="0.7"/><rect x="59.75" y="57.12" width="9.54" height="1.41" rx="0.7"/><rect x="81.17" y="27.33" width="9.54" height="1.41" rx="0.7"/><rect x="91.74" y="57.12" width="3.74" height="1.41" rx="0.7"/><rect x="43.81" y="35.62" width="26.23" height="1.41" rx="0.7"/><rect x="43.81" y="40.75" width="26.23" height="1.41" rx="0.7"/><rect x="43.81" y="45.87" width="26.23" height="1.41" rx="0.7"/><rect x="81.01" y="35.62" width="26.23" height="1.41" rx="0.7"/><rect x="81.01" y="40.75" width="26.23" height="1.41" rx="0.7"/><rect x="81.01" y="45.87" width="26.23" height="1.41" rx="0.7"/><rect x="17.43" y="18.24" width="11.25" height="39.68"/><rect class="cls-1" x="20.21" y="15.57" width="5.7" height="5.7" rx="2.85"/><rect class="cls-1" x="18.1" y="52.46" width="9.91" height="9.91" transform="translate(-33.85 33.12) rotate(-45)"/></svg>