<svg id="Layer_1" data-name="Layer 1" xmlns="http://www.w3.org/2000/svg" viewBox="0 0 127.29 80"><defs><style>.cls-1{fill:none;stroke:#000;stroke-miterlimit:10;stroke-width:3px;}</style></defs><title>sepeda</title><rect class="cls-1" x="78.85" y="40.86" width="23.27" height="23.27" rx="6.71" transform="translate(-10.61 79.36) rotate(-45)"/><rect x="77.24" y="66.21" width="25.62" height="1.41" rx="0.7"/><rect x="27.24" y="63.71" width="25.62" height="1.41" rx="0.7"/><rect class="cls-1" x="25.08" y="38.35" width="23.27" height="23.27" rx="6.91" transform="translate(-24.59 40.61) rotate(-45)"/><path d="M37.84,16.23l-3.76,2.23c-.76.76-.37,3.12.38,3.88l3.38,1.09a1.94,1.94,0,0,0,2.73,0l2.23-2.24a1.92,1.92,0,0,0,0-2.73l-2.23-2.23A1.94,1.94,0,0,0,37.84,16.23Z"/><rect x="53.93" y="12.39" width="10.69" height="5.35" rx="2.67"/><path d="M59.34,15h1.21a1.08,1.08,0,0,1,1.08,1.08V44.66a1.14,1.14,0,0,1-1.14,1.14h0a1.14,1.14,0,0,1-1.14-1.14V15a0,0,0,0,1,0,0Z" transform="translate(2.82 -5.05) rotate(4.9)"/><path d="M48.45,16.5h1.21a1.08,1.08,0,0,1,1.08,1.08V39.68a1.14,1.14,0,0,1-1.14,1.14h0a1.14,1.14,0,0,1-1.14-1.14V16.5a0,0,0,0,1,0,0Z" transform="translate(78.26 -20.93) rotate(90)"/><path d="M47.47,22.59h1.21a1.08,1.08,0,0,1,1.08,1.08v25.6a1.14,1.14,0,0,1-1.14,1.14h0a1.14,1.14,0,0,1-1.14-1.14V22.59a0,0,0,0,1,0,0Z" transform="translate(107.27 20.51) rotate(127.84)"/><path d="M36.65,23h1.21a1.08,1.08,0,0,1,1.08,1.08V47.77a1.14,1.14,0,0,1-1.14,1.14h0a1.14,1.14,0,0,1-1.14-1.14V23a0,0,0,0,1,0,0Z" transform="matrix(1, 0.07, -0.07, 1, 2.62, -2.57)"/><path d="M91.46,51.51a1,1,0,0,0,.65-.29l.78-.78-1-1L62.26,19.64a1.05,1.05,0,1,0-1.5,1.47L88.9,49.41l1.81,1.81a1,1,0,0,0,.65.29Z"/><path d="M91.53,52.09l-.93.63a.89.89,0,0,1-.68.16L59,45.41a1.11,1.11,0,0,1-.65-1.56,1.07,1.07,0,0,1,1.22-.61l31.22,7.54Z"/><rect x="56.04" y="41.8" width="6.75" height="3.94" rx="1.97"/><rect x="87.97" y="49.64" width="6.75" height="3.94" rx="1.97"/><rect x="33.58" y="45.74" width="6.75" height="3.94" rx="1.97"/></svg>