<svg id="Layer_1" data-name="Layer 1" xmlns="http://www.w3.org/2000/svg" viewBox="0 0 127.29 80"><defs><style>.cls-1{fill:none;stroke:#000;stroke-miterlimit:10;stroke-width:3px;}</style></defs><title>travelling</title><path class="cls-1" d="M59.37,47.36a23.12,23.12,0,0,1,4.52-13.24L79.13,14.41"/><path class="cls-1" d="M103.87,15.28l14.58,18.84A23.07,23.07,0,0,1,123,47.36"/><path class="cls-1" d="M103.87,15.28c-.11.13-.22.26-.35.39l-7,7a6.69,6.69,0,0,1-9.49,0l-7-7a6.89,6.89,0,0,1-1-1.26l1-1.26c6.11-7.9,16-7.9,22.12,0Z"/><path class="cls-1" d="M4.29,48.32A23.12,23.12,0,0,1,8.81,35.08L24.05,15.37"/><path class="cls-1" d="M48.79,16.24,63.37,35.08a23.07,23.07,0,0,1,4.54,13.24"/><path class="cls-1" d="M48.79,16.24c-.11.13-.22.26-.35.39l-7,7a6.69,6.69,0,0,1-9.49,0l-7-6.95a6.89,6.89,0,0,1-1-1.26l1-1.26c6.11-7.9,16-7.9,22.12,0Z"/><rect x="32.88" y="46.27" width="7.87" height="7.99" rx="1.73" transform="translate(-24.76 40.75) rotate(-45)"/><rect x="33.44" y="43.06" width="6.76" height="6.86" rx="1.65" transform="translate(-22.09 39.65) rotate(-45)"/><rect x="34.44" y="41.16" width="4.74" height="4.82" rx="0.83" transform="translate(-20.03 38.79) rotate(-45)"/><rect x="36.26" y="51.35" width="1.33" height="8.65" rx="0.4"/><rect x="46.32" y="43.9" width="5.31" height="5.4" rx="1.73" transform="translate(-18.6 48.28) rotate(-45)"/><rect x="46.7" y="41.73" width="4.56" height="4.63" rx="1.65" transform="translate(-16.8 47.54) rotate(-45)"/><rect x="47.38" y="40.45" width="3.2" height="3.25" rx="0.83" transform="translate(-15.41 46.96) rotate(-45)"/><rect x="48.61" y="47.33" width="0.9" height="5.84" rx="0.4"/><rect x="87" y="46.33" width="7.99" height="7.87" rx="1.73" transform="translate(-8.89 79.06) rotate(-45)"/><rect x="87.56" y="43.12" width="6.86" height="6.76" rx="1.65" transform="translate(-6.23 77.96) rotate(-45)"/><rect x="88.58" y="41.2" width="4.82" height="4.74" rx="0.83" transform="translate(-4.16 77.1) rotate(-45)"/><rect x="90.21" y="51.35" width="1.33" height="8.65" rx="0.4" transform="translate(181.76 111.34) rotate(-180)"/><rect x="76.13" y="43.94" width="5.4" height="5.31" rx="1.73" transform="translate(-9.86 69.39) rotate(-45)"/><rect x="76.51" y="41.77" width="4.63" height="4.56" rx="1.65" transform="translate(-8.06 68.64) rotate(-45)"/><rect x="77.2" y="40.48" width="3.25" height="3.2" rx="0.83" transform="translate(-6.67 68.06) rotate(-45)"/><rect x="78.3" y="47.33" width="0.9" height="5.84" rx="0.4" transform="translate(157.5 100.49) rotate(-180)"/><circle cx="62.66" cy="54.4" r="2.13"/><rect x="59.48" y="57.28" width="6.37" height="10" rx="3.19"/><rect x="57.9" y="57.44" width="1.52" height="7.59" rx="0.5" transform="translate(57.05 -23.55) rotate(42.68)"/><rect x="65.9" y="57.44" width="1.52" height="7.59" rx="0.5" transform="translate(157.18 61.06) rotate(137.32)"/><rect x="60.36" y="65.61" width="1.25" height="7.17" rx="0.62"/><rect x="63.8" y="65.61" width="1.25" height="7.17" rx="0.62"/></svg>